<svg xmlns="http://www.w3.org/2000/svg" viewBox="0 0 800 260" fill="none">
  <defs>
    <!-- Matrix rain gradient -->
    <linearGradient id="matrix" x1="0%" y1="0%" x2="0%" y2="100%">
      <stop offset="0%" stop-color="#00ff41" stop-opacity="0"/>
      <stop offset="40%" stop-color="#00ff41" stop-opacity="0.15"/>
      <stop offset="100%" stop-color="#00ff41" stop-opacity="0"/>
    </linearGradient>

    <!-- Main green glow -->
    <linearGradient id="glow" x1="0%" y1="0%" x2="100%" y2="100%">
      <stop offset="0%" stop-color="#00ff41"/>
      <stop offset="50%" stop-color="#00cc33"/>
      <stop offset="100%" stop-color="#00ff41"/>
    </linearGradient>

    <!-- Subtle text gradient -->
    <linearGradient id="textGrad" x1="0%" y1="0%" x2="100%" y2="0%">
      <stop offset="0%" stop-color="#00ff41"/>
      <stop offset="50%" stop-color="#33ff77"/>
      <stop offset="100%" stop-color="#00ff41"/>
    </linearGradient>

    <!-- Glow filter for the icon -->
    <filter id="neonGlow" x="-20%" y="-20%" width="140%" height="140%">
      <feGaussianBlur in="SourceGraphic" stdDeviation="3" result="blur"/>
      <feComposite in="SourceGraphic" in2="blur" operator="over"/>
    </filter>

    <!-- Soft outer glow -->
    <filter id="softGlow" x="-30%" y="-30%" width="160%" height="160%">
      <feGaussianBlur in="SourceGraphic" stdDeviation="8" result="blur"/>
      <feColorMatrix in="blur" type="matrix" values="0 0 0 0 0  0 0.8 0 0 0  0 0 0 0 0.25  0 0 0 0.4 0"/>
      <feComposite in="SourceGraphic" in2="blur" operator="over"/>
    </filter>

    <!-- Clip path for the hexagon -->
    <clipPath id="hexClip">
      <polygon points="130,18 210,58 210,138 130,178 50,138 50,58"/>
    </clipPath>
  </defs>

  <!-- Background -->
  <rect width="800" height="260" rx="16" fill="#0a0a0a"/>

  <!-- Subtle matrix rain columns -->
  <g opacity="0.07" font-family="'Courier New', monospace" font-size="11" fill="#00ff41">
    <text x="30" y="30">01001</text>
    <text x="30" y="50">11010</text>
    <text x="30" y="70">00101</text>
    <text x="30" y="90">10110</text>
    <text x="30" y="110">01101</text>
    <text x="30" y="130">11001</text>
    <text x="30" y="150">00110</text>
    <text x="30" y="170">10011</text>
    <text x="30" y="190">01110</text>
    <text x="30" y="210">11100</text>
    <text x="30" y="230">01001</text>
    <text x="30" y="250">10010</text>

    <text x="730" y="20">10110</text>
    <text x="730" y="40">01001</text>
    <text x="730" y="60">11010</text>
    <text x="730" y="80">00101</text>
    <text x="730" y="100">10011</text>
    <text x="730" y="120">01110</text>
    <text x="730" y="140">11001</text>
    <text x="730" y="160">00110</text>
    <text x="730" y="180">10101</text>
    <text x="730" y="200">01100</text>
    <text x="730" y="220">11011</text>
    <text x="730" y="240">00101</text>
  </g>

  <!-- Hexagon icon -->
  <g transform="translate(0, 32)">
    <!-- Hex outer glow -->
    <polygon points="130,18 210,58 210,138 130,178 50,138 50,58"
             fill="none" stroke="#00ff41" stroke-width="2" opacity="0.15"
             filter="url(#softGlow)"/>

    <!-- Hex border -->
    <polygon points="130,18 210,58 210,138 130,178 50,138 50,58"
             fill="#0d1a0f" stroke="#00ff41" stroke-width="2.5" opacity="0.9"/>

    <!-- Inner circuit lines -->
    <g stroke="#00ff41" stroke-width="1" opacity="0.2">
      <line x1="90" y1="58" x2="170" y2="58"/>
      <line x1="80" y1="78" x2="180" y2="78"/>
      <line x1="75" y1="98" x2="185" y2="98"/>
      <line x1="80" y1="118" x2="180" y2="118"/>
      <line x1="90" y1="138" x2="170" y2="138"/>
    </g>

    <!-- Brain/AI neural network icon -->
    <g filter="url(#neonGlow)">
      <!-- Central node -->
      <circle cx="130" cy="98" r="8" fill="#00ff41" opacity="0.9"/>
      <circle cx="130" cy="98" r="4" fill="#0a0a0a"/>

      <!-- Top nodes -->
      <circle cx="108" cy="62" r="5" fill="#00ff41" opacity="0.7"/>
      <circle cx="152" cy="62" r="5" fill="#00ff41" opacity="0.7"/>

      <!-- Mid nodes -->
      <circle cx="85" cy="88" r="5" fill="#00ff41" opacity="0.7"/>
      <circle cx="175" cy="88" r="5" fill="#00ff41" opacity="0.7"/>
      <circle cx="85" cy="112" r="5" fill="#00ff41" opacity="0.7"/>
      <circle cx="175" cy="112" r="5" fill="#00ff41" opacity="0.7"/>

      <!-- Bottom nodes -->
      <circle cx="108" cy="138" r="5" fill="#00ff41" opacity="0.7"/>
      <circle cx="152" cy="138" r="5" fill="#00ff41" opacity="0.7"/>

      <!-- Neural connections -->
      <g stroke="#00ff41" stroke-width="1.5" opacity="0.5">
        <!-- From center to all -->
        <line x1="130" y1="98" x2="108" y2="62"/>
        <line x1="130" y1="98" x2="152" y2="62"/>
        <line x1="130" y1="98" x2="85" y2="88"/>
        <line x1="130" y1="98" x2="175" y2="88"/>
        <line x1="130" y1="98" x2="85" y2="112"/>
        <line x1="130" y1="98" x2="175" y2="112"/>
        <line x1="130" y1="98" x2="108" y2="138"/>
        <line x1="130" y1="98" x2="152" y2="138"/>

        <!-- Cross connections -->
        <line x1="108" y1="62" x2="85" y2="88"/>
        <line x1="152" y1="62" x2="175" y2="88"/>
        <line x1="85" y1="112" x2="108" y2="138"/>
        <line x1="175" y1="112" x2="152" y2="138"/>
        <line x1="108" y1="62" x2="152" y2="62"/>
        <line x1="108" y1="138" x2="152" y2="138"/>
        <line x1="85" y1="88" x2="85" y2="112"/>
        <line x1="175" y1="88" x2="175" y2="112"/>
      </g>
    </g>

    <!-- Pulse rings -->
    <circle cx="130" cy="98" r="30" fill="none" stroke="#00ff41" stroke-width="0.8" opacity="0.15"/>
    <circle cx="130" cy="98" r="50" fill="none" stroke="#00ff41" stroke-width="0.5" opacity="0.08"/>
  </g>

  <!-- Text group -->
  <g transform="translate(245, 60)">
    <!-- NEO main text -->
    <text font-family="'SF Mono', 'Fira Code', 'JetBrains Mono', 'Cascadia Code', Consolas, monospace"
          font-size="96" font-weight="800" letter-spacing="12"
          fill="url(#textGrad)" filter="url(#neonGlow)">
      NEO
    </text>

    <!-- Subtitle -->
    <text y="50" font-family="'SF Mono', 'Fira Code', 'JetBrains Mono', Consolas, monospace"
          font-size="16" letter-spacing="6" fill="#00ff41" opacity="0.6">
      CLAUDE AI AGENT PLATFORM
    </text>

    <!-- Separator line -->
    <line x1="0" y1="28" x2="340" y2="28" stroke="#00ff41" stroke-width="1" opacity="0.2"/>

    <!-- Feature tags -->
    <g transform="translate(0, 80)">
      <!-- Tag: REPL -->
      <rect x="0" y="0" width="60" height="24" rx="4" fill="#00ff41" opacity="0.1" stroke="#00ff41" stroke-width="0.8" stroke-opacity="0.3"/>
      <text x="30" y="16" text-anchor="middle" font-family="'SF Mono', Consolas, monospace" font-size="10" fill="#00ff41" opacity="0.7">REPL</text>

      <!-- Tag: TELEGRAM -->
      <rect x="72" y="0" width="90" height="24" rx="4" fill="#00ff41" opacity="0.1" stroke="#00ff41" stroke-width="0.8" stroke-opacity="0.3"/>
      <text x="117" y="16" text-anchor="middle" font-family="'SF Mono', Consolas, monospace" font-size="10" fill="#00ff41" opacity="0.7">TELEGRAM</text>

      <!-- Tag: VOICE -->
      <rect x="174" y="0" width="66" height="24" rx="4" fill="#00ff41" opacity="0.1" stroke="#00ff41" stroke-width="0.8" stroke-opacity="0.3"/>
      <text x="207" y="16" text-anchor="middle" font-family="'SF Mono', Consolas, monospace" font-size="10" fill="#00ff41" opacity="0.7">VOICE</text>

      <!-- Tag: MCP -->
      <rect x="252" y="0" width="54" height="24" rx="4" fill="#00ff41" opacity="0.1" stroke="#00ff41" stroke-width="0.8" stroke-opacity="0.3"/>
      <text x="279" y="16" text-anchor="middle" font-family="'SF Mono', Consolas, monospace" font-size="10" fill="#00ff41" opacity="0.7">MCP</text>
    </g>
  </g>

  <!-- Bottom accent line -->
  <rect x="50" y="248" width="700" height="1" fill="url(#glow)" opacity="0.15"/>
</svg>
