<svg xmlns="http://www.w3.org/2000/svg" viewBox="0 0 800 300" fill="none">
  <defs>
    <linearGradient id="glow" x1="0%" y1="0%" x2="100%" y2="100%">
      <stop offset="0%" stop-color="#00ff41"/>
      <stop offset="50%" stop-color="#00cc33"/>
      <stop offset="100%" stop-color="#00ff41"/>
    </linearGradient>

    <linearGradient id="textGrad" x1="0%" y1="0%" x2="100%" y2="0%">
      <stop offset="0%" stop-color="#00ff41"/>
      <stop offset="50%" stop-color="#33ff77"/>
      <stop offset="100%" stop-color="#00ff41"/>
    </linearGradient>

    <filter id="neonGlow" x="-20%" y="-20%" width="140%" height="140%">
      <feGaussianBlur in="SourceGraphic" stdDeviation="3" result="blur"/>
      <feComposite in="SourceGraphic" in2="blur" operator="over"/>
    </filter>

    <filter id="softGlow" x="-30%" y="-30%" width="160%" height="160%">
      <feGaussianBlur in="SourceGraphic" stdDeviation="8" result="blur"/>
      <feColorMatrix in="blur" type="matrix" values="0 0 0 0 0  0 0.8 0 0 0  0 0 0 0 0.25  0 0 0 0.4 0"/>
      <feComposite in="SourceGraphic" in2="blur" operator="over"/>
    </filter>
  </defs>

  <!-- Background -->
  <rect width="800" height="300" rx="16" fill="#0a0a0a"/>

  <!-- Subtle matrix rain columns -->
  <g opacity="0.06" font-family="'Courier New', monospace" font-size="11" fill="#00ff41">
    <text x="30" y="30">01001</text>
    <text x="30" y="50">11010</text>
    <text x="30" y="70">00101</text>
    <text x="30" y="90">10110</text>
    <text x="30" y="110">01101</text>
    <text x="30" y="130">11001</text>
    <text x="30" y="150">00110</text>
    <text x="30" y="170">10011</text>
    <text x="30" y="190">01110</text>
    <text x="30" y="210">11100</text>
    <text x="30" y="230">01001</text>
    <text x="30" y="250">10010</text>
    <text x="30" y="270">11010</text>
    <text x="30" y="290">00101</text>

    <text x="730" y="25">10110</text>
    <text x="730" y="45">01001</text>
    <text x="730" y="65">11010</text>
    <text x="730" y="85">00101</text>
    <text x="730" y="105">10011</text>
    <text x="730" y="125">01110</text>
    <text x="730" y="145">11001</text>
    <text x="730" y="165">00110</text>
    <text x="730" y="185">10101</text>
    <text x="730" y="205">01100</text>
    <text x="730" y="225">11011</text>
    <text x="730" y="245">00101</text>
    <text x="730" y="265">10110</text>
    <text x="730" y="285">01001</text>
  </g>

  <!-- Hexagon icon -->
  <g transform="translate(0, 52)">
    <!-- Hex outer glow -->
    <polygon points="130,18 210,58 210,138 130,178 50,138 50,58"
             fill="none" stroke="#00ff41" stroke-width="2" opacity="0.15"
             filter="url(#softGlow)"/>

    <!-- Hex border -->
    <polygon points="130,18 210,58 210,138 130,178 50,138 50,58"
             fill="#0d1a0f" stroke="#00ff41" stroke-width="2.5" opacity="0.9"/>

    <!-- Inner circuit lines -->
    <g stroke="#00ff41" stroke-width="1" opacity="0.2">
      <line x1="90" y1="58" x2="170" y2="58"/>
      <line x1="80" y1="78" x2="180" y2="78"/>
      <line x1="75" y1="98" x2="185" y2="98"/>
      <line x1="80" y1="118" x2="180" y2="118"/>
      <line x1="90" y1="138" x2="170" y2="138"/>
    </g>

    <!-- Brain/AI neural network icon -->
    <g filter="url(#neonGlow)">
      <!-- Central node -->
      <circle cx="130" cy="98" r="8" fill="#00ff41" opacity="0.9"/>
      <circle cx="130" cy="98" r="4" fill="#0a0a0a"/>

      <!-- Top nodes -->
      <circle cx="108" cy="62" r="5" fill="#00ff41" opacity="0.7"/>
      <circle cx="152" cy="62" r="5" fill="#00ff41" opacity="0.7"/>

      <!-- Mid nodes -->
      <circle cx="85" cy="88" r="5" fill="#00ff41" opacity="0.7"/>
      <circle cx="175" cy="88" r="5" fill="#00ff41" opacity="0.7"/>
      <circle cx="85" cy="112" r="5" fill="#00ff41" opacity="0.7"/>
      <circle cx="175" cy="112" r="5" fill="#00ff41" opacity="0.7"/>

      <!-- Bottom nodes -->
      <circle cx="108" cy="138" r="5" fill="#00ff41" opacity="0.7"/>
      <circle cx="152" cy="138" r="5" fill="#00ff41" opacity="0.7"/>

      <!-- Neural connections -->
      <g stroke="#00ff41" stroke-width="1.5" opacity="0.5">
        <line x1="130" y1="98" x2="108" y2="62"/>
        <line x1="130" y1="98" x2="152" y2="62"/>
        <line x1="130" y1="98" x2="85" y2="88"/>
        <line x1="130" y1="98" x2="175" y2="88"/>
        <line x1="130" y1="98" x2="85" y2="112"/>
        <line x1="130" y1="98" x2="175" y2="112"/>
        <line x1="130" y1="98" x2="108" y2="138"/>
        <line x1="130" y1="98" x2="152" y2="138"/>

        <line x1="108" y1="62" x2="85" y2="88"/>
        <line x1="152" y1="62" x2="175" y2="88"/>
        <line x1="85" y1="112" x2="108" y2="138"/>
        <line x1="175" y1="112" x2="152" y2="138"/>
        <line x1="108" y1="62" x2="152" y2="62"/>
        <line x1="108" y1="138" x2="152" y2="138"/>
        <line x1="85" y1="88" x2="85" y2="112"/>
        <line x1="175" y1="88" x2="175" y2="112"/>
      </g>
    </g>

    <!-- Pulse rings -->
    <circle cx="130" cy="98" r="30" fill="none" stroke="#00ff41" stroke-width="0.8" opacity="0.15"/>
    <circle cx="130" cy="98" r="50" fill="none" stroke="#00ff41" stroke-width="0.5" opacity="0.08"/>
  </g>

  <!-- Text group — shifted down so NEO fits inside viewBox -->
  <g transform="translate(250, 120)">
    <!-- NEO main text -->
    <text font-family="'SF Mono', 'Fira Code', 'JetBrains Mono', 'Cascadia Code', Consolas, monospace"
          font-size="86" font-weight="800" letter-spacing="14"
          fill="url(#textGrad)" filter="url(#neonGlow)">
      NEO
    </text>

    <!-- Separator line -->
    <line x1="0" y1="18" x2="320" y2="18" stroke="#00ff41" stroke-width="1" opacity="0.2"/>

    <!-- Subtitle -->
    <text y="46" font-family="'SF Mono', 'Fira Code', 'JetBrains Mono', Consolas, monospace"
          font-size="14" letter-spacing="5.5" fill="#00ff41" opacity="0.6">
      CLAUDE AI AGENT PLATFORM
    </text>

    <!-- Feature tags -->
    <g transform="translate(0, 72)">
      <!-- Tag: REPL -->
      <rect x="0" y="0" width="58" height="22" rx="4" fill="#00ff41" opacity="0.1" stroke="#00ff41" stroke-width="0.8" stroke-opacity="0.3"/>
      <text x="29" y="15" text-anchor="middle" font-family="'SF Mono', Consolas, monospace" font-size="10" fill="#00ff41" opacity="0.7">REPL</text>

      <!-- Tag: TELEGRAM -->
      <rect x="68" y="0" width="88" height="22" rx="4" fill="#00ff41" opacity="0.1" stroke="#00ff41" stroke-width="0.8" stroke-opacity="0.3"/>
      <text x="112" y="15" text-anchor="middle" font-family="'SF Mono', Consolas, monospace" font-size="10" fill="#00ff41" opacity="0.7">TELEGRAM</text>

      <!-- Tag: VOICE -->
      <rect x="166" y="0" width="62" height="22" rx="4" fill="#00ff41" opacity="0.1" stroke="#00ff41" stroke-width="0.8" stroke-opacity="0.3"/>
      <text x="197" y="15" text-anchor="middle" font-family="'SF Mono', Consolas, monospace" font-size="10" fill="#00ff41" opacity="0.7">VOICE</text>

      <!-- Tag: MCP -->
      <rect x="238" y="0" width="52" height="22" rx="4" fill="#00ff41" opacity="0.1" stroke="#00ff41" stroke-width="0.8" stroke-opacity="0.3"/>
      <text x="264" y="15" text-anchor="middle" font-family="'SF Mono', Consolas, monospace" font-size="10" fill="#00ff41" opacity="0.7">MCP</text>
    </g>
  </g>

  <!-- Bottom accent line -->
  <rect x="50" y="288" width="700" height="1" fill="url(#glow)" opacity="0.15"/>
</svg>
